<svg aria-hidden="true" style="position: absolute; width: 0; height: 0; overflow: hidden;" version="1.1" xmlns="http://www.w3.org/2000/svg" xmlns:xlink="http://www.w3.org/1999/xlink">
<defs>
<symbol id="home" width="24" height="24" viewBox="0 0 24 24" fill="none" stroke="currentColor" stroke-width="2" stroke-linecap="round" stroke-linejoin="round">
	<path d="M3 9l9-7 9 7v11a2 2 0 0 1-2 2H5a2 2 0 0 1-2-2z">
	</path>
	<polyline points="9 22 9 12 15 12 15 22">
	</polyline>
</symbol>
<symbol id="hash" width="24" height="24" viewBox="0 0 24 24" fill="none" stroke="currentColor" stroke-width="2" stroke-linecap="round" stroke-linejoin="round">
	<line x1="4" y1="9" x2="20" y2="9">
	</line>
	<line x1="4" y1="15" x2="20" y2="15">
	</line>
	<line x1="10" y1="3" x2="8" y2="21">
	</line>
	<line x1="16" y1="3" x2="14" y2="21">
	</line>
</symbol>
<symbol id="bell" xmlns="http://www.w3.org/2000/svg" width="24" height="24" viewBox="0 0 24 24" fill="none" stroke="currentColor" stroke-width="2" stroke-linecap="round" stroke-linejoin="round">
	<path d="M18 8A6 6 0 0 0 6 8c0 7-3 9-3 9h18s-3-2-3-9">
	</path>
	<path d="M13.73 21a2 2 0 0 1-3.46 0">
	</path>
</symbol>
<symbol id="message-square" xmlns="http://www.w3.org/2000/svg" width="24" height="24" viewBox="0 0 24 24" fill="none" stroke="currentColor" stroke-width="2" stroke-linecap="round" stroke-linejoin="round">
	<path d="M21 15a2 2 0 0 1-2 2H7l-4 4V5a2 2 0 0 1 2-2h14a2 2 0 0 1 2 2z">
	</path>
</symbol>
<symbol id="bookmark" xmlns="http://www.w3.org/2000/svg" width="24" height="24" viewBox="0 0 24 24" fill="none" stroke="currentColor" stroke-width="2" stroke-linecap="round" stroke-linejoin="round">
	<path d="M19 21l-7-5-7 5V5a2 2 0 0 1 2-2h10a2 2 0 0 1 2 2z">
	</path>
</symbol>
<symbol id="list" xmlns="http://www.w3.org/2000/svg" width="24" height="24" viewBox="0 0 24 24" fill="none" stroke="currentColor" stroke-width="2" stroke-linecap="round" stroke-linejoin="round">
	<line x1="8" y1="6" x2="21" y2="6">
	</line>
	<line x1="8" y1="12" x2="21" y2="12">
	</line>
	<line x1="8" y1="18" x2="21" y2="18">
	</line>
	<line x1="3" y1="6" x2="3.01" y2="6">
	</line>
	<line x1="3" y1="12" x2="3.01" y2="12">
	</line>
	<line x1="3" y1="18" x2="3.01" y2="18">
	</line>
</symbol>
<symbol id="user" xmlns="http://www.w3.org/2000/svg" width="24" height="24" viewBox="0 0 24 24" fill="none" stroke="currentColor" stroke-width="2" stroke-linecap="round" stroke-linejoin="round">
	<path d="M20 21v-2a4 4 0 0 0-4-4H8a4 4 0 0 0-4 4v2">
	</path>
	<circle cx="12" cy="7" r="4">
	</circle>
</symbol>
<symbol id="more" width="24" height="24" viewBox="0 0 24 24" fill="none" stroke="currentColor" stroke-width="2" stroke-linecap="round" stroke-linejoin="round" class="feather feather-more-horizontal">
	<circle cx="12" cy="12" r="1">
	</circle>
	<circle cx="19" cy="12" r="1">
	</circle>
	<circle cx="5" cy="12" r="1">
	</circle>
</symbol>
<symbol id="twitter" width="24" height="24" viewBox="0 0 24 24" fill="none" stroke="currentColor"
	 stroke-width="2" stroke-linecap="round" stroke-linejoin="round" class="feather feather-twitter">
	<path fill="white" d="M23 3a10.9 10.9 0 0 1-3.14 1.53 4.48 4.48 0 0 0-7.86 3v1A10.66 10.66 0 0 1 3 4s-4 9 5 13a11.64 11.64 0 0 1-7 2c9 5 20 0 20-11.5a4.5 4.5 0 0 0-.08-.83A7.72 7.72 0 0 0 23 3z"></path>
</symbol>
</defs>
</svg>
